# xmcd
# 
# Track frame offsets:
#     150
#     13477
#     28302
#     43902
#     63120
#     77920
#     93095
#     110152
#     125400
#     139582
# 
# Disc length: 2073
# 
# Revision: 4
# Processed by: cddbd v1.5.2PL0 Copyright (c) Steve Scherf et al.
# Submitted via: fre:ac v1.0.17
# 
DISCID=8a08170a
DTITLE=Blackhawk - Strong Enough
DYEAR=1995
DGENRE=Country
TTITLE0=Big Guitar
TTITLE1=Like There Ain't No Yesterday
TTITLE2=Cast Iron Heart
TTITLE3=I'm Not Strong Enough To Say No
TTITLE4=Almost A Memory Now
TTITLE5=King of The World
TTITLE6=Bad Love Gone Good
TTITLE7=Any Man With A Heartbeat
TTITLE8=A Kiss Is Worth A Thousand Words
TTITLE9=Hook, Line, And Sinker
EXTD=YEAR: 1995 ID3G: 2
EXTT0=
EXTT1=
EXTT2=
EXTT3=
EXTT4=
EXTT5=
EXTT6=
EXTT7=
EXTT8=
EXTT9=
PLAYORDER=
